<?xml version="1.0" standalone="no"?>
<!DOCTYPE svg PUBLIC "-//W3C//DTD SVG 20010904//EN"
 "http://www.w3.org/TR/2001/REC-SVG-20010904/DTD/svg10.dtd">
<svg version="1.0" xmlns="http://www.w3.org/2000/svg"
 width="1280.000000pt" height="1280.000000pt" viewBox="0 0 1280.000000 1280.000000"
 preserveAspectRatio="xMidYMid meet">
<metadata>
Created by potrace 1.15, written by Peter Selinger 2001-2017
</metadata>
<g transform="translate(0.000000,1280.000000) scale(0.100000,-0.100000)"
fill="#000000" stroke="none">
<path d="M3410 11093 c-249 -23 -463 -65 -660 -129 -475 -153 -915 -432 -1285
-816 -420 -435 -655 -951 -694 -1518 -11 -170 6 -4684 19 -4871 24 -355 105
-653 261 -959 174 -345 423 -632 774 -894 405 -304 850 -482 1410 -563 112
-16 401 -17 4541 -20 l4421 -3 6 647 c9 826 9 1155 -1 1169 -4 6 -73 50 -154
97 l-146 87 -4134 3 c-3843 2 -4139 3 -4223 19 -228 44 -390 128 -488 255 -57
75 -81 122 -114 230 l-27 88 -3 465 c-2 256 -4 556 -6 668 l-2 202 4658 0
4657 0 0 935 0 935 -4657 2 -4658 3 -3 635 c-3 705 -2 712 62 847 99 206 364
413 621 485 l80 23 4135 5 4135 5 137 64 c76 35 142 69 148 76 7 9 13 308 17
924 l6 911 -4399 -2 c-2419 0 -4415 -3 -4434 -5z"/>
</g>
</svg>
